<svg aria-hidden="true" style="position: absolute; width: 0; height: 0; overflow: hidden;" version="1.1" xmlns="http://www.w3.org/2000/svg" xmlns:xlink="http://www.w3.org/1999/xlink">
    <defs>

        <symbol id="icon-add" viewBox="0 0 32 32">
            <path d="M16 0c-8.823 0-16 7.177-16 16s7.177 16 16 16 16-7.178 16-16-7.177-16-16-16zM16 29.521c-7.455 0-13.521-6.065-13.521-13.521s6.067-13.521 13.521-13.521 13.521 6.065 13.521 13.521-6.065 13.521-13.521 13.521z"></path>
            <path d="M22.197 14.649h-4.957v-4.957c0-0.684-0.554-1.239-1.239-1.239s-1.239 0.555-1.239 1.239v4.957h-4.957c-0.685 0-1.239 0.555-1.239 1.239s0.554 1.239 1.239 1.239h4.957v4.957c0 0.684 0.554 1.239 1.239 1.239s1.239-0.555 1.239-1.239v-4.957h4.957c0.685 0 1.239-0.555 1.239-1.239s-0.554-1.239-1.239-1.239z"></path>
        </symbol>

        <symbol id="icon-delete" viewBox="0 0 32 32">
            <path d="M20.414 11.594c-0.414 0-0.749 0.335-0.749 0.749v14.164c0 0.414 0.335 0.749 0.749 0.749s0.749-0.336 0.749-0.749v-14.164c0-0.414-0.335-0.749-0.749-0.749z"></path>
            <path d="M11.571 11.594c-0.414 0-0.749 0.335-0.749 0.749v14.164c0 0.414 0.335 0.749 0.749 0.749s0.749-0.336 0.749-0.749v-14.164c0-0.414-0.335-0.749-0.749-0.749z"></path>
            <path d="M5.126 9.527v18.464c0 1.091 0.4 2.116 1.099 2.852 0.696 0.737 1.664 1.156 2.678 1.158h14.179c1.014-0.002 1.982-0.42 2.678-1.158 0.699-0.735 1.099-1.76 1.099-2.852v-18.464c1.39-0.369 2.29-1.711 2.104-3.137s-1.401-2.492-2.839-2.492h-3.837v-0.937c0.004-0.788-0.307-1.544-0.865-2.101s-1.315-0.866-2.103-0.859h-6.655c-0.788-0.006-1.545 0.303-2.103 0.859s-0.869 1.313-0.865 2.101v0.937h-3.837c-1.438 0-2.652 1.067-2.839 2.492s0.715 2.768 2.104 3.137zM23.082 30.501h-14.179c-1.281 0-2.278-1.101-2.278-2.511v-18.398h18.735v18.398c0 1.41-0.997 2.511-2.278 2.511zM11.196 2.96c-0.005-0.39 0.148-0.766 0.425-1.041s0.653-0.427 1.044-0.42h6.655c0.39-0.007 0.767 0.145 1.044 0.42s0.43 0.651 0.425 1.041v0.937h-9.592zM5.86 5.396h20.264c0.745 0 1.349 0.604 1.349 1.349s-0.604 1.349-1.349 1.349h-20.264c-0.745 0-1.349-0.604-1.349-1.349s0.604-1.349 1.349-1.349z"></path>
            <path d="M15.992 11.594c-0.414 0-0.749 0.335-0.749 0.749v14.164c0 0.414 0.335 0.749 0.749 0.749s0.749-0.336 0.749-0.749v-14.164c0-0.414-0.335-0.749-0.749-0.749z"></path>
        </symbol>

        <symbol id="icon-free-icon-check-mark-66936" viewBox="0 0 32 32">
            <path d="M16 0c-8.822 0-16 7.178-16 16s7.178 16 16 16c8.822 0 16-7.178 16-16s-7.178-16-16-16zM16 29.377c-7.376 0-13.377-6.001-13.377-13.377s6.001-13.377 13.377-13.377c7.376 0 13.377 6.001 13.377 13.377s-6.001 13.377-13.377 13.377z"></path>
            <path d="M22.922 9.859l-9.5 9.5-4.343-4.343c-0.512-0.512-1.343-0.512-1.855 0s-0.512 1.343 0 1.855l5.271 5.271c0.256 0.256 0.592 0.384 0.927 0.384s0.671-0.128 0.927-0.384l10.427-10.427c0.512-0.512 0.512-1.343 0-1.855s-1.343-0.512-1.855-0z"></path>
        </symbol>

    </defs>
</svg>
